<?xml version="1.0" encoding="UTF-8" standalone="no"?>
<!-- Created with Inkscape (http://www.inkscape.org/) -->

<svg
   width="52.108311mm"
   height="33.867413mm"
   viewBox="0 0 52.108311 33.867413"
   version="1.1"
   id="svg1"
   inkscape:version="1.4.4 (dcaf3e7, 2026-05-05)"
   sodipodi:docname="bias_variance_belkin.svg"
   xmlns:inkscape="http://www.inkscape.org/namespaces/inkscape"
   xmlns:sodipodi="http://sodipodi.sourceforge.net/DTD/sodipodi-0.dtd"
   xmlns="http://www.w3.org/2000/svg"
   xmlns:svg="http://www.w3.org/2000/svg">
  <sodipodi:namedview
     id="namedview1"
     pagecolor="#ffffff"
     bordercolor="#000000"
     borderopacity="0.25"
     inkscape:showpageshadow="2"
     inkscape:pageopacity="0.0"
     inkscape:pagecheckerboard="0"
     inkscape:deskcolor="#d1d1d1"
     inkscape:document-units="mm"
     inkscape:zoom="0.68802945"
     inkscape:cx="61.770611"
     inkscape:cy="87.205569"
     inkscape:window-width="1150"
     inkscape:window-height="519"
     inkscape:window-x="143"
     inkscape:window-y="220"
     inkscape:window-maximized="0"
     inkscape:current-layer="layer1" />
  <defs
     id="defs1">
    <clipPath
       clipPathUnits="userSpaceOnUse"
       id="clipPath185">
      <path
         d="m 1798.592,225.59467 h 196.9546 V 95.993125 H 1798.592 Z"
         id="path185" />
    </clipPath>
    <clipPath
       clipPathUnits="userSpaceOnUse"
       id="clipPath184">
      <path
         d="M -1.6655356e-6,2.5500027 H 52.615999 V -6.5349974 H -1.6655356e-6 Z"
         id="path184" />
    </clipPath>
  </defs>
  <g
     inkscape:label="Layer 1"
     inkscape:groupmode="layer"
     id="layer1"
     transform="translate(-82.549988,-131.49792)">
    <g
       id="g202"
       transform="matrix(0.26458333,0,0,0.26458333,-393.33001,106.0997)">
      <path
         d="m 80,752 v 64"
         style="fill:none;stroke:#000000;stroke-width:0.4;stroke-linecap:butt;stroke-linejoin:round;stroke-miterlimit:10;stroke-dasharray:1, 3;stroke-dashoffset:0;stroke-opacity:1"
         transform="matrix(1.7291733,0,0,-1.7291733,1759.6873,1507.6902)"
         id="path186" />
      <path
         d="M 32,816 V 752 H 136"
         style="fill:none;stroke:#a9a9a9;stroke-width:0.8;stroke-linecap:butt;stroke-linejoin:round;stroke-miterlimit:10;stroke-dasharray:none;stroke-opacity:1"
         transform="matrix(1.7291733,0,0,-1.7291733,1759.6873,1507.6902)"
         id="path187" />
      <path
         d="m 136,752 -5,1.665 1,-1.665 -1,-1.665 z"
         style="fill:#a9a9a9;fill-opacity:1;fill-rule:evenodd;stroke:#a9a9a9;stroke-width:0.8;stroke-linecap:butt;stroke-linejoin:round;stroke-miterlimit:10;stroke-dasharray:none;stroke-opacity:1"
         transform="matrix(1.7291733,0,0,-1.7291733,1759.6873,1507.6902)"
         id="path188" />
      <path
         d="m 32,816 -1.665,-5 1.665,1 1.665,-1 z"
         style="fill:#a9a9a9;fill-opacity:1;fill-rule:evenodd;stroke:#a9a9a9;stroke-width:0.8;stroke-linecap:butt;stroke-linejoin:round;stroke-miterlimit:10;stroke-dasharray:none;stroke-opacity:1"
         transform="matrix(1.7291733,0,0,-1.7291733,1759.6873,1507.6902)"
         id="path189" />
      <path
         d="m 3.7771698,-2.7102037 c 0.6234916,-0.1626499 1.3915609,-0.6144554 1.3915609,-1.3011998 0,-0.7861415 -1.0120443,-1.4277053 -2.2048107,-1.4277053 H 0.37055646 v 0.2620472 h 0.17168609 c 0.61445545,0 0.63252765,0.081325 0.63252765,0.3795166 v 4.15661047 c 0,0.28915551 -0.018072,0.37951661 -0.63252765,0.37951661 H 0.37055646 V 6.2926022e-4 C 1.0482647,-0.02647907 1.0573008,-0.02647907 1.5181424,-0.02647907 c 0.4789138,0 0.4879499,0 1.1656582,0.0271083302 V -0.26141792 H 2.5121145 c -0.6144555,0 -0.6325277,-0.0903611 -0.6325277,-0.37951661 V -2.6108065 H 2.882595 c 0.5963832,0 0.8584304,0.2891556 0.9126471,0.3524083 0.2259027,0.2620472 0.2259027,0.406625 0.2259027,0.9487915 0,0.50602219 0,0.84939436 0.3343361,1.13854988 0.3433721,0.29819162 0.7951776,0.34337217 1.0210804,0.34337217 0.6686721,0 0.8222859,-0.65963602 0.8222859,-0.89457487 0,-0.0542167 0,-0.15361386 -0.1265055,-0.15361386 -0.1084333,0 -0.1084333,0.0903611 -0.1174694,0.14457775 -0.045181,0.49698604 -0.3162639,0.67770823 -0.5421666,0.67770823 -0.4337333,0 -0.4789138,-0.3704805 -0.6234916,-1.3825248 -0.054217,-0.4518055 -0.1355416,-1.0030082 -1.0120443,-1.2740915 z m -0.912647,-0.1265055 h -0.984936 v -2.0150525 c 0,-0.2078305 0.00904,-0.2981916 0.1987944,-0.3162638 0.072289,-0.00904 0.3253,-0.00904 0.4879499,-0.00904 0.7138527,0 1.7710775,0 1.7710775,1.1656581 0,0.8855388 -0.6415638,1.1746943 -1.4728858,1.1746943 z m 4.9201617,-2.0692691 c 0,-0.2349389 -0.1807222,-0.4518055 -0.4427694,-0.4518055 -0.2349388,0 -0.4427694,0.1897583 -0.4427694,0.4427694 0,0.2801194 0.2349389,0.4427693 0.4427694,0.4427693 0.2710833,0 0.4427694,-0.2259027 0.4427694,-0.4337332 z m -1.1927665,1.481922 v 0.2620472 c 0.5060222,0 0.578311,0.045181 0.578311,0.4337332 v 2.10541359 c 0,0.36144439 -0.099397,0.36144439 -0.6054193,0.36144439 V 6.2926022e-4 C 6.8720374,-0.02647907 7.3238429,-0.02647907 7.4413123,-0.02647907 c 0.1084334,0 0.5783111,0 0.8584305,0.0271083302 V -0.26141792 c -0.5150583,0 -0.5512027,-0.0451805 -0.5512027,-0.35240828 v -2.9005912 z m 4.827542,0.081325 c 0,-0.1355417 0,-0.2078306 -0.0994,-0.2078306 -0.04518,0 -0.07229,0 -0.198794,0.1265056 -0.009,0.00904 -0.08133,0.081325 -0.108433,0.081325 -0.009,0 -0.02711,0 -0.07229,-0.036144 -0.126506,-0.090361 -0.361445,-0.1716861 -0.713853,-0.1716861 -1.1204774,0 -1.3644524,0.6054194 -1.3644524,0.984936 0,0.3975888 0.2981916,0.6325277 0.3162638,0.6505999 0.3162639,0.243975 0.5060222,0.2710833 1.0391526,0.3704805 0.370481,0.072289 0.984936,0.1807222 0.984936,0.72288877 0,0.31626384 -0.207831,0.67770823 -0.939755,0.67770823 -0.8042142,0 -1.039153,-0.62349157 -1.1385502,-1.0391526 -0.036144,-0.1084333 -0.036144,-0.1445778 -0.1355417,-0.1445778 -0.1265055,0 -0.1265055,0.063253 -0.1265055,0.2168667 v 0.98493592 c 0,0.12650554022 0,0.20783053 0.099397,0.20783053 0.054217,0 0.063253,-0.0090361 0.1987944,-0.16264998 0.045181,-0.03614444 0.1265055,-0.14457775 0.1716861,-0.18072219 0.3614444,0.32529995 0.7319249,0.34337217 0.9397559,0.34337217 1.012044,0 1.364452,-0.58734714 1.364452,-1.11144155 0,-0.3795166 -0.234939,-0.9397554 -1.18373,-1.1114414 -0.06325,-0.018072 -0.5060224,-0.099397 -0.5421669,-0.099397 -0.2439749,-0.054217 -0.6234916,-0.2259027 -0.6234916,-0.5421665 0,-0.2349389 0.1807222,-0.569275 0.9397555,-0.569275 0.885539,0 0.930719,0.6505999 0.948792,0.8765027 0.009,0.063253 0.06325,0.081325 0.117469,0.081325 0.126506,0 0.126506,-0.054217 0.126506,-0.2078305 z m 2.896073,1.1746942 0.677708,-0.5421666 c 0.533131,-0.415661 0.867467,-0.4518054 1.066261,-0.4608416 v -0.2620471 c -0.189758,0.027108 -0.307228,0.027108 -0.632528,0.027108 -0.388552,0 -0.496986,-0.00904 -0.849394,-0.027108 v 0.2620471 c 0.144578,0.00904 0.180722,0.1084334 0.180722,0.16265 0,0.16265 -0.16265,0.2981916 -0.225903,0.3433722 l -1.147585,0.9307193 v -3.7951661 l -1.183731,0.090361 v 0.2620472 c 0.542167,0 0.605419,0.054217 0.605419,0.4427694 v 4.11142989 c 0,0.36144439 -0.0994,0.36144439 -0.605419,0.36144439 V 6.2926022e-4 C 12.508311,-0.02647907 12.942044,-0.02647907 13.077586,-0.02647907 c 0.16265,0 0.569275,0 0.885539,0.0271083302 V -0.26141792 c -0.515059,0 -0.60542,0 -0.60542,-0.36144439 V -1.3909316 l 0.542167,-0.4337333 c 0.01807,0 0.225903,0.2801194 0.352408,0.4337333 0.126506,0.1626499 0.253011,0.3252999 0.379517,0.47891378 0.108433,0.16264997 0.280119,0.3704805 0.280119,0.48794992 0,0.13554165 -0.153614,0.16264998 -0.253011,0.16264998 V 6.2926022e-4 C 15.002277,-0.02647907 15.363722,-0.02647907 15.499263,-0.02647907 c 0.307228,0 0.460842,0 0.740961,0.0271083302 V -0.26141792 c -0.334336,0 -0.478914,-0.0361444 -0.768069,-0.40662494 z m 0,0"
         style="fill:#000000;fill-opacity:1;fill-rule:nonzero;stroke:none"
         aria-label="Risk"
         transform="matrix(0,-1.7291733,1.7291733,0,1808.163,162.39857)"
         opacity="1"
         id="path190" />
      <path
         d="M 5.6375698,-5.3864241 H 0.45987895 l -0.15361387,1.8072219 h 0.24397496 c 0.10843332,-1.3463803 0.28915552,-1.5451747 1.50903036,-1.5451747 0.1536138,0 0.4066249,0 0.4698777,0.018072 0.1445777,0.027108 0.1536138,0.1084333 0.1536138,0.3072277 v 4.1475744 c 0,0.28011941 0,0.38855272 -0.8222859,0.38855272 H 1.5532482 V -9.0269532e-4 C 1.8514398,-0.02801102 2.7098703,-0.02801102 3.0532424,-0.02801102 c 0.3433722,0 1.2018026,0 1.4999943,0.0271083247 V -0.26294988 H 4.2460089 c -0.8313221,0 -0.8313221,-0.10843331 -0.8313221,-0.38855272 V -4.799077 c 0,-0.1807222 0,-0.2801194 0.1716861,-0.3072277 0.072289,-0.018072 0.2981916,-0.018072 0.4518055,-0.018072 1.2198748,0 1.400597,0.1987944 1.5180664,1.5451747 h 0.243975 z m 1.233429,3.5692633 c 0,-0.5963832 0.2530111,-1.4638497 1.0120443,-1.4728858 -0.045181,0.027108 -0.1265055,0.090361 -0.1265055,0.2801194 0,0.2439749 0.1897583,0.3524082 0.3524082,0.3524082 0.1897583,0 0.3614444,-0.1265055 0.3614444,-0.3524082 0,-0.2801194 -0.2620472,-0.5060222 -0.6054193,-0.5060222 -0.5240944,0 -0.8674666,0.3885527 -1.0391526,0.8403582 h -0.00904 v -0.8403582 l -1.1295137,0.090361 v 0.2620472 c 0.5421666,0 0.6054194,0.054217 0.6054194,0.4427694 v 2.09637743 c 0,0.36144439 -0.099397,0.36144439 -0.6054194,0.36144439 V -9.0269532e-4 C 5.9944962,-0.02801102 6.4372655,-0.02801102 6.6270238,-0.02801102 c 0.4698778,0 0.48795,0 1.0030082,0.0271083247 V -0.26294988 h -0.16265 c -0.578311,0 -0.5963832,-0.0903611 -0.5963832,-0.37951661 z m 5.1799502,-0.5602388 c 0,-0.7771054 -0.749997,-1.1746942 -1.481922,-1.1746942 -0.6596363,0 -1.2469834,0.253011 -1.2469834,0.7771054 0,0.243975 0.1626499,0.3795166 0.3704805,0.3795166 0.2259027,0 0.3795169,-0.1536138 0.3795169,-0.3704805 0,-0.1897583 -0.1174697,-0.3252999 -0.2981919,-0.3704805 0.2981919,-0.1987944 0.7228889,-0.1987944 0.7861419,-0.1987944 0.442769,0 0.885538,0.3162639 0.885538,0.9668638 v 0.2439749 c -0.460841,0.027108 -0.993972,0.054217 -1.5542105,0.2801194 -0.6957805,0.3072277 -0.8313221,0.7680693 -0.8313221,1.03011653 0,0.68674434 0.8042138,0.89457486 1.3554166,0.89457486 0.578311,0 0.939755,-0.32529995 1.111441,-0.6505999 0.04518,0.30722773 0.253011,0.60541935 0.596384,0.60541935 0.08132,0 0.759033,-0.02710833 0.759033,-0.7499971 V -1.1575247 h -0.243975 v 0.44276934 c 0,0.32529995 -0.11747,0.45180548 -0.289156,0.45180548 -0.298191,0 -0.298191,-0.3704805 -0.298191,-0.45180548 z m -0.60542,1.2560193 c 0,0.76806932 -0.6506,0.97589985 -0.966863,0.97589985 -0.415661,0 -0.7680697,-0.2801194 -0.7680697,-0.65963601 0,-0.52409434 0.4969857,-1.06626094 1.7349327,-1.11144154 z m 3.049687,-3.78613 c 0,-0.2349388 -0.180722,-0.4518055 -0.442769,-0.4518055 -0.234939,0 -0.442769,0.1897583 -0.442769,0.4427694 0,0.2801194 0.234938,0.4427694 0.442769,0.4427694 0.271083,0 0.442769,-0.2259028 0.442769,-0.4337333 z m -1.192766,1.481922 v 0.2620472 c 0.506022,0 0.578311,0.045181 0.578311,0.4337333 v 2.10541353 c 0,0.36144439 -0.0994,0.36144439 -0.605419,0.36144439 V -9.0269532e-4 C 13.582569,-0.02801102 14.034375,-0.02801102 14.151844,-0.02801102 c 0.108434,0 0.578311,0 0.858431,0.0271083247 V -0.26294988 c -0.515059,0 -0.551203,-0.0451805 -0.551203,-0.35240828 V -3.5159494 Z m 5.868953,1.0120443 c 0,-0.6686721 -0.307228,-1.1024054 -1.13855,-1.1024054 -0.795177,0 -1.147586,0.578311 -1.246983,0.7680693 h -0.009 v -0.7680693 l -1.156622,0.090361 v 0.2620472 c 0.542167,0 0.605419,0.054217 0.605419,0.4427694 v 2.09637743 c 0,0.36144439 -0.09036,0.36144439 -0.605419,0.36144439 V -9.0269532e-4 C 15.963584,-0.02801102 16.315993,-0.02801102 16.532859,-0.02801102 c 0.225903,0 0.560239,0 0.903611,0.0271083247 V -0.26294988 c -0.506022,0 -0.605419,0 -0.605419,-0.36144439 V -2.0611357 c 0,-0.8403582 0.641564,-1.2289109 1.129513,-1.2289109 0.478914,0 0.60542,0.3433721 0.60542,0.8403582 v 1.82529413 c 0,0.36144439 -0.0994,0.36144439 -0.60542,0.36144439 V -9.0269532e-4 C 18.303937,-0.02801102 18.647309,-0.02801102 18.864175,-0.02801102 c 0.234939,0 0.569275,0 0.912648,0.0271083247 V -0.26294988 c -0.515059,0 -0.60542,0 -0.60542,-0.36144439 z m 2.381015,-2.4939663 c 0,-0.2349388 -0.180722,-0.4518055 -0.442769,-0.4518055 -0.234939,0 -0.44277,0.1897583 -0.44277,0.4427694 0,0.2801194 0.234939,0.4427694 0.44277,0.4427694 0.271083,0 0.442769,-0.2259028 0.442769,-0.4337333 z m -1.192766,1.481922 v 0.2620472 c 0.506022,0 0.578311,0.045181 0.578311,0.4337333 v 2.10541353 c 0,0.36144439 -0.0994,0.36144439 -0.60542,0.36144439 V -9.0269532e-4 C 20.639771,-0.02801102 21.091577,-0.02801102 21.209046,-0.02801102 c 0.108433,0 0.578311,0 0.85843,0.0271083247 V -0.26294988 c -0.515058,0 -0.551202,-0.0451805 -0.551202,-0.35240828 V -3.5159494 Z m 5.866694,1.0120443 c 0,-0.6686721 -0.307228,-1.1024054 -1.13855,-1.1024054 -0.795178,0 -1.147586,0.578311 -1.246983,0.7680693 h -0.009 v -0.7680693 l -1.156622,0.090361 v 0.2620472 c 0.542166,0 0.605419,0.054217 0.605419,0.4427694 v 2.09637743 c 0,0.36144439 -0.09036,0.36144439 -0.605419,0.36144439 v 0.26204718468 c 0.343372,-0.0271083247 0.69578,-0.0271083247 0.912647,-0.0271083247 0.225903,0 0.560239,0 0.903611,0.0271083247 V -0.26294988 c -0.506022,0 -0.60542,0 -0.60542,-0.36144439 V -2.0611357 c 0,-0.8403582 0.641564,-1.2289109 1.129514,-1.2289109 0.478914,0 0.60542,0.3433721 0.60542,0.8403582 v 1.82529413 c 0,0.36144439 -0.0994,0.36144439 -0.60542,0.36144439 V -9.0269532e-4 C 25.358879,-0.02801102 25.702252,-0.02801102 25.919118,-0.02801102 c 0.234939,0 0.569275,0 0.912647,0.0271083247 V -0.26294988 c -0.515058,0 -0.605419,0 -0.605419,-0.36144439 z m 2.211588,1.86143861 c -0.253011,-0.0271083 -0.451806,-0.23493885 -0.451806,-0.52409441 0,-0.1897583 0.04518,-0.2620471 0.108434,-0.334336 0.334336,0.1987944 0.641563,0.2349388 0.831322,0.2349388 0.795177,0 1.373488,-0.5512027 1.373488,-1.1656581 0,-0.3072277 -0.135541,-0.5602388 -0.3253,-0.7680693 0.108434,-0.099397 0.370481,-0.2620472 0.759034,-0.2710833 -0.02711,0.027108 -0.06325,0.063253 -0.06325,0.1897583 0,0.1445777 0.0994,0.253011 0.243975,0.253011 0.108433,0 0.243975,-0.072289 0.243975,-0.2620471 0,-0.1355417 -0.0994,-0.406625 -0.451806,-0.406625 -0.135541,0 -0.515058,0.036145 -0.885538,0.3704805 -0.198795,-0.1445777 -0.506023,-0.2801194 -0.885539,-0.2801194 -0.786142,0 -1.373489,0.5512027 -1.373489,1.1746943 0,0.3704805 0.207831,0.6505999 0.379517,0.8132499 -0.180723,0.1987944 -0.243975,0.4518054 -0.243975,0.64156375 0,0.32529995 0.16265,0.57831102 0.334336,0.71385267 -0.406625,0.10843332 -0.740961,0.41566105 -0.740961,0.78614155 0,0.56927493 0.822286,1.02108043 1.879511,1.02108043 0.993972,0 1.870474,-0.406625 1.870474,-1.03915265 0,-0.42469716 -0.253011,-0.76806933 -0.515058,-0.90361098 C 30.0554,-0.55210539 29.657812,-0.55210539 28.880706,-0.55210539 Z M 28.93492,-1.4014997 c -0.740961,0 -0.740961,-0.7680693 -0.740961,-0.9397554 0,-0.2981916 0.04518,-0.5060222 0.16265,-0.6686721 0.135541,-0.1807222 0.352408,-0.2710833 0.569275,-0.2710833 0.740961,0 0.740961,0.7590332 0.740961,0.9397554 0,0.2891555 -0.03614,0.496986 -0.153614,0.659636 -0.180722,0.2259027 -0.433733,0.2801194 -0.578311,0.2801194 z m 0.379516,1.36445257 c 0.207831,0 1.25602,0 1.25602,0.64156379 0,0.43373324 -0.614456,0.79517764 -1.400597,0.79517764 -0.795178,0 -1.409634,-0.3614444 -1.409634,-0.79517764 0,-0.16264998 0.135542,-0.64156379 0.786142,-0.64156379 z m 6.268802,-1.78011367 c 0,-0.5963832 0.253011,-1.4638497 1.012044,-1.4728858 -0.04518,0.027108 -0.126506,0.090361 -0.126506,0.2801194 0,0.2439749 0.189759,0.3524082 0.352409,0.3524082 0.189758,0 0.361444,-0.1265055 0.361444,-0.3524082 0,-0.2801194 -0.262047,-0.5060222 -0.605419,-0.5060222 -0.524095,0 -0.867467,0.3885527 -1.039153,0.8403582 h -0.009 v -0.8403582 l -1.129514,0.090361 v 0.2620472 c 0.542167,0 0.605419,0.054217 0.605419,0.4427694 v 2.09637743 c 0,0.36144439 -0.0994,0.36144439 -0.605419,0.36144439 v 0.26204728468 c 0.307192,-0.0271083247 0.749961,-0.0271083247 0.93972,-0.0271083247 0.469877,0 0.487949,0 1.003008,0.0271083247 V -0.26294988 h -0.16265 c -0.578311,0 -0.596383,-0.0903611 -0.596383,-0.37951661 z m 3.3908,-3.0903495 c 0,-0.2349388 -0.180723,-0.4518055 -0.44277,-0.4518055 -0.234939,0 -0.442769,0.1897583 -0.442769,0.4427694 0,0.2801194 0.234939,0.4427694 0.442769,0.4427694 0.271084,0 0.44277,-0.2259028 0.44277,-0.4337333 z m -1.192767,1.481922 v 0.2620472 c 0.506022,0 0.578311,0.045181 0.578311,0.4337333 v 2.10541353 c 0,0.36144439 -0.0994,0.36144439 -0.605419,0.36144439 V -9.0269532e-4 C 38.061391,-0.02801102 38.513196,-0.02801102 38.630666,-0.02801102 c 0.108433,0 0.578311,0 0.85843,0.0271083247 V -0.26294988 c -0.515058,0 -0.551203,-0.0451805 -0.551203,-0.35240828 V -3.5159494 Z m 4.827542,0.081325 c 0,-0.1355416 0,-0.2078305 -0.0994,-0.2078305 -0.04518,0 -0.07229,0 -0.198795,0.1265055 -0.009,0.00904 -0.08132,0.081325 -0.108433,0.081325 -0.009,0 -0.02711,0 -0.07229,-0.036144 -0.126506,-0.090361 -0.361444,-0.1716861 -0.713853,-0.1716861 -1.120477,0 -1.364452,0.6054193 -1.364452,0.9849359 0,0.3975889 0.298191,0.6325277 0.316264,0.6505999 0.316263,0.243975 0.506022,0.2710833 1.039152,0.3704805 0.370481,0.072289 0.984936,0.1807222 0.984936,0.72288882 0,0.31626384 -0.20783,0.67770823 -0.939755,0.67770823 -0.804214,0 -1.039153,-0.62349157 -1.13855,-1.03915265 -0.03614,-0.1084333 -0.03614,-0.1445777 -0.135542,-0.1445777 -0.126505,0 -0.126505,0.063253 -0.126505,0.2168666 v 0.98493597 c 0,0.12650553468 0,0.20783052 0.0994,0.20783052 0.05422,0 0.06325,-0.0090361 0.198794,-0.16264997 0.04518,-0.03614444 0.126506,-0.14457776 0.171686,-0.1807222 0.361445,0.32529995 0.731925,0.34337217 0.939756,0.34337217 1.012044,0 1.364452,-0.58734713 1.364452,-1.11144149 0,-0.3795166 -0.234938,-0.9397554 -1.18373,-1.1114415 -0.06325,-0.018072 -0.506022,-0.099397 -0.542166,-0.099397 -0.243975,-0.054217 -0.623492,-0.2259028 -0.623492,-0.5421666 0,-0.2349388 0.180722,-0.5692749 0.939755,-0.5692749 0.885539,0 0.93072,0.6505999 0.948792,0.8765026 0.009,0.063253 0.06325,0.081325 0.117469,0.081325 0.126506,0 0.126506,-0.054217 0.126506,-0.2078305 z m 2.898332,1.1746943 0.677708,-0.5421666 c 0.533131,-0.4156611 0.867467,-0.4518055 1.066261,-0.4608416 v -0.2620472 c -0.189758,0.027108 -0.307228,0.027108 -0.632527,0.027108 -0.388553,0 -0.496987,-0.00904 -0.849395,-0.027108 v 0.2620472 c 0.144578,0.00904 0.180722,0.1084333 0.180722,0.16265 0,0.1626499 -0.16265,0.2981916 -0.225902,0.3433721 l -1.147586,0.9307193 v -3.7951661 l -1.183731,0.090361 v 0.2620472 c 0.542167,0 0.60542,0.054217 0.60542,0.4427694 v 4.11142993 c 0,0.36144439 -0.0994,0.36144439 -0.60542,0.36144439 V -9.0269532e-4 C 43.699923,-0.02801102 44.133656,-0.02801102 44.269198,-0.02801102 c 0.16265,0 0.569275,0 0.885539,0.0271083247 V -0.26294988 c -0.515059,0 -0.60542,0 -0.60542,-0.36144439 V -1.3924636 l 0.542167,-0.4337333 c 0.01807,0 0.225903,0.2801194 0.352408,0.4337333 0.126506,0.16265 0.253011,0.3253 0.379517,0.47891382 0.108433,0.16264998 0.280119,0.3704805 0.280119,0.48794993 0,0.13554164 -0.153614,0.16264997 -0.253011,0.16264997 V -9.0269532e-4 C 46.193889,-0.02801102 46.555334,-0.02801102 46.690875,-0.02801102 c 0.307228,0 0.460842,0 0.740961,0.0271083247 V -0.26294988 c -0.334336,0 -0.478913,-0.0361444 -0.768069,-0.40662494 z m 0,0"
         style="fill:#000000;fill-opacity:1;fill-rule:nonzero;stroke:none"
         aria-label="Trainingrisk"
         transform="matrix(1.7291733,0,0,1.7291733,1898.0212,190.06015)"
         opacity="1"
         id="path191" />
      <path
         d="M 5.6383074,-5.384787 H 0.46061653 l -0.15361386,1.8072219 h 0.24397496 c 0.10843332,-1.3463803 0.28915551,-1.5451747 1.50903037,-1.5451747 0.1536138,0 0.4066249,0 0.4698777,0.018072 0.1445777,0.027108 0.1536138,0.1084333 0.1536138,0.3072277 v 4.14757441 c 0,0.2801194 0,0.38855271 -0.822286,0.38855271 H 1.5539858 V 7.3440681e-4 C 1.8521774,-0.02637392 2.7106079,-0.02637392 3.05398,-0.02637392 c 0.3433722,0 1.2018026,0 1.4999942,0.0271083268 V -0.26131278 H 4.2467465 c -0.8313221,0 -0.8313221,-0.10843331 -0.8313221,-0.38855271 V -4.7974399 c 0,-0.1807222 0,-0.2801194 0.1716861,-0.3072277 0.072289,-0.018072 0.2981916,-0.018072 0.4518055,-0.018072 1.2198748,0 1.400597,0.1987944 1.5180664,1.5451747 h 0.243975 z m 3.0587232,3.5692633 c 0.1807222,0 0.2259027,0 0.2259027,-0.1807221 0,-0.7138527 -0.3885527,-1.5542109 -1.5180664,-1.5542109 -0.984936,0 -1.7620414,0.8132499 -1.7620414,1.8072219 0,1.03011654 0.8674665,1.82529419 1.8704747,1.82529419 1.0120443,0 1.4096331,-0.85843042 1.4096331,-1.03915262 0,-0.0271083 -0.027108,-0.10843327 -0.1265055,-0.10843327 -0.090361,0 -0.1084333,0.054217 -0.1174695,0.0993972 -0.2891555,0.77710544 -0.9758998,0.79517766 -1.1204776,0.79517766 -0.3614444,0 -0.7228887,-0.16264997 -0.9668637,-0.53313047 C 6.3566781,-1.0655265 6.3566781,-1.5805848 6.3566781,-1.8155237 Z M 6.3657142,-2.0233542 c 0.072289,-1.1204776 0.7499972,-1.3102359 1.0391527,-1.3102359 0.9397554,0 0.9668637,1.1295137 0.9758998,1.3102359 z m 5.6430508,-1.319272 c 0,-0.1355416 0,-0.2078305 -0.0994,-0.2078305 -0.04518,0 -0.07229,0 -0.198795,0.1265055 -0.009,0.00904 -0.08132,0.081325 -0.108433,0.081325 -0.009,0 -0.02711,0 -0.07229,-0.036144 -0.126506,-0.090361 -0.361444,-0.1716861 -0.713853,-0.1716861 -1.1204773,0 -1.3644523,0.6054193 -1.3644523,0.9849359 0,0.3975889 0.2981916,0.6325277 0.3162639,0.6505999 0.3162634,0.243975 0.5060224,0.2710833 1.0391524,0.3704805 0.370481,0.072289 0.984936,0.1807222 0.984936,0.72288882 0,0.31626384 -0.20783,0.67770823 -0.939755,0.67770823 -0.804214,0 -1.0391529,-0.62349157 -1.1385501,-1.03915265 -0.036144,-0.1084333 -0.036144,-0.1445777 -0.1355416,-0.1445777 -0.1265056,0 -0.1265056,0.063253 -0.1265056,0.2168666 v 0.98493597 c 0,0.12650553681 0,0.20783052 0.099397,0.20783052 0.054217,0 0.063253,-0.0090361 0.1987944,-0.16264997 0.045181,-0.03614444 0.1265056,-0.14457776 0.1716861,-0.1807222 0.3614448,0.32529995 0.7319248,0.34337217 0.9397558,0.34337217 1.012044,0 1.364452,-0.58734713 1.364452,-1.11144149 0,-0.3795166 -0.234938,-0.9397554 -1.18373,-1.1114415 -0.06325,-0.018072 -0.506022,-0.099397 -0.542167,-0.099397 -0.243975,-0.054217 -0.6234913,-0.2259028 -0.6234913,-0.5421666 0,-0.2349388 0.1807223,-0.5692749 0.9397553,-0.5692749 0.885539,0 0.93072,0.6505999 0.948792,0.8765026 0.009,0.063253 0.06325,0.081325 0.117469,0.081325 0.126506,0 0.126506,-0.054217 0.126506,-0.2078305 z m 1.983426,0.1716861 h 1.18373 v -0.2620472 h -1.18373 v -1.4638498 h -0.243975 c -0.009,0.7228888 -0.334336,1.481922 -1.075297,1.4999942 v 0.2259028 h 0.713853 v 2.17770244 c 0,0.9307193 0.713852,1.07529705 1.084333,1.07529705 0.53313,0 0.849394,-0.47891381 0.849394,-1.07529705 V -1.4450432 h -0.243975 v 0.4337333 c 0,0.55120271 -0.243975,0.84035822 -0.551203,0.84035822 -0.53313,0 -0.53313,-0.67770823 -0.53313,-0.80421377 z m 6.103892,1.3554164 c 0,-0.5963832 0.253011,-1.4638497 1.012044,-1.4728858 -0.04518,0.027108 -0.126505,0.090361 -0.126505,0.2801194 0,0.2439749 0.189758,0.3524082 0.352408,0.3524082 0.189758,0 0.361444,-0.1265055 0.361444,-0.3524082 0,-0.2801194 -0.262047,-0.5060222 -0.605419,-0.5060222 -0.524094,0 -0.867466,0.3885527 -1.039153,0.8403582 h -0.009 v -0.8403582 l -1.129513,0.090361 v 0.2620472 c 0.542166,0 0.605419,0.054217 0.605419,0.4427694 v 2.09637743 c 0,0.36144439 -0.0994,0.36144439 -0.605419,0.36144439 V 7.3440681e-4 C 19.21958,-0.02637392 19.66235,-0.02637392 19.852108,-0.02637392 c 0.469878,0 0.48795,0 1.003008,0.0271083268 V -0.26131278 h -0.16265 c -0.578311,0 -0.596383,-0.0903611 -0.596383,-0.3795166 z m 3.3908,-3.0903495 c 0,-0.2349388 -0.180722,-0.4518055 -0.442769,-0.4518055 -0.234939,0 -0.44277,0.1897583 -0.44277,0.4427694 0,0.2801194 0.234939,0.4427694 0.44277,0.4427694 0.271083,0 0.442769,-0.2259028 0.442769,-0.4337333 z m -1.192766,1.481922 v 0.2620472 c 0.506022,0 0.578311,0.04518 0.578311,0.4337333 v 2.10541353 c 0,0.36144439 -0.0994,0.36144439 -0.60542,0.36144439 V 7.3440681e-4 C 22.574236,-0.02637392 23.026042,-0.02637392 23.143511,-0.02637392 c 0.108433,0 0.578311,0 0.85843,0.0271083268 V -0.26131278 c -0.515058,0 -0.551202,-0.0451805 -0.551202,-0.35240828 V -3.5143123 Z m 4.8298,0.081325 c 0,-0.1355416 0,-0.2078305 -0.0994,-0.2078305 -0.04518,0 -0.07229,0 -0.198794,0.1265055 -0.009,0.00904 -0.08132,0.081325 -0.108434,0.081325 -0.009,0 -0.02711,0 -0.07229,-0.036144 -0.126506,-0.090361 -0.361445,-0.1716861 -0.713853,-0.1716861 -1.120478,0 -1.364453,0.6054193 -1.364453,0.9849359 0,0.3975889 0.298192,0.6325277 0.316264,0.6505999 0.316264,0.243975 0.506022,0.2710833 1.039153,0.3704805 0.37048,0.072289 0.984936,0.1807222 0.984936,0.72288882 0,0.31626384 -0.207831,0.67770823 -0.939756,0.67770823 -0.804213,0 -1.039152,-0.62349157 -1.13855,-1.03915265 -0.03614,-0.1084333 -0.03614,-0.1445777 -0.135541,-0.1445777 -0.126506,0 -0.126506,0.063253 -0.126506,0.2168666 v 0.98493597 c 0,0.12650553681 0,0.20783052 0.0994,0.20783052 0.05422,0 0.06325,-0.0090361 0.198794,-0.16264997 0.04518,-0.03614444 0.126505,-0.14457776 0.171686,-0.1807222 0.361444,0.32529995 0.731925,0.34337217 0.939755,0.34337217 1.012045,0 1.364453,-0.58734713 1.364453,-1.11144149 0,-0.3795166 -0.234939,-0.9397554 -1.18373,-1.1114415 -0.06325,-0.018072 -0.506023,-0.099397 -0.542167,-0.099397 -0.243975,-0.054217 -0.623492,-0.2259028 -0.623492,-0.5421666 0,-0.2349388 0.180723,-0.5692749 0.939756,-0.5692749 0.885539,0 0.930719,0.6505999 0.948791,0.8765026 0.009,0.063253 0.06325,0.081325 0.11747,0.081325 0.126505,0 0.126505,-0.054217 0.126505,-0.2078305 z m 2.896074,1.1746943 0.677708,-0.5421666 c 0.53313,-0.4156611 0.867466,-0.4518055 1.066261,-0.4608416 v -0.2620472 c -0.189759,0.027108 -0.307228,0.027108 -0.632528,0.027108 -0.388553,0 -0.496986,-0.00904 -0.849394,-0.027108 v 0.2620472 c 0.144577,0.00904 0.180722,0.1084333 0.180722,0.16265 0,0.1626499 -0.16265,0.2981916 -0.225903,0.3433721 l -1.147586,0.9307193 v -3.7951661 l -1.18373,0.090361 v 0.2620472 c 0.542166,0 0.605419,0.054217 0.605419,0.4427694 v 4.11142993 c 0,0.36144439 -0.0994,0.36144439 -0.605419,0.36144439 V 7.3440681e-4 C 28.212769,-0.02637392 28.646502,-0.02637392 28.782043,-0.02637392 c 0.16265,0 0.569275,0 0.885539,0.0271083268 V -0.26131278 c -0.515058,0 -0.605419,0 -0.605419,-0.36144439 V -1.3908265 l 0.542166,-0.4337333 c 0.01807,0 0.225903,0.2801194 0.352409,0.4337333 0.126505,0.16265 0.253011,0.3253 0.379516,0.47891382 0.108434,0.16264998 0.28012,0.3704805 0.28012,0.48794993 0,0.13554165 -0.153614,0.16264997 -0.253011,0.16264997 V 7.3440681e-4 C 30.706735,-0.02637392 31.068179,-0.02637392 31.203721,-0.02637392 c 0.307228,0 0.460841,0 0.740961,0.0271083268 V -0.26131278 c -0.334336,0 -0.478914,-0.0361444 -0.768069,-0.40662493 z m 0,0"
         style="fill:#000000;fill-opacity:1;fill-rule:nonzero;stroke:none"
         aria-label="Testrisk"
         transform="matrix(1.7291733,0,0,1.7291733,1904.9379,131.26826)"
         opacity="1"
         id="path192" />
      <path
         d="m 36,796 c 16,-24 36,-44 92,-44"
         style="fill:none;stroke:#000000;stroke-width:0.4;stroke-linecap:butt;stroke-linejoin:round;stroke-miterlimit:10;stroke-dasharray:4;stroke-dashoffset:0;stroke-opacity:1"
         transform="matrix(1.7291733,0,0,-1.7291733,1759.6873,1507.6902)"
         id="path193" />
      <path
         d="m 36,800 c 22.4,-30.667 56,-52 92,12"
         style="fill:none;stroke:#000000;stroke-width:0.8;stroke-linecap:butt;stroke-linejoin:round;stroke-miterlimit:10;stroke-dasharray:none;stroke-opacity:1"
         transform="matrix(1.7291733,0,0,-1.7291733,1759.6873,1507.6902)"
         id="path194" />
      <path
         d="m 81.2,752 c 0,0.663 -0.5373,1.2 -1.2,1.2 -0.6627,0 -1.2,-0.537 -1.2,-1.2 0,-0.663 0.5373,-1.2 1.2,-1.2 0.6627,0 1.2,0.537 1.2,1.2"
         style="fill:#a9a9a9;fill-opacity:1;fill-rule:evenodd;stroke:none"
         transform="matrix(1.7291733,0,0,-1.7291733,1759.6873,1507.6902)"
         id="path195" />
      <g
         clip-path="url(#clipPath185)"
         id="g198">
        <g
           aria-label="CapacityofH"
           transform="matrix(1.7291733,0,0,1.7291733,1859.4468,221.18527)"
           clip-path="url(#clipPath184)"
           id="g197">
          <path
             d="m 5.6376739,-5.4045657 c 0,-0.1265056 0,-0.2078305 -0.1084333,-0.2078305 -0.054217,0 -0.063253,0.00904 -0.1355417,0.1084333 L 4.987074,-4.9075797 C 4.6979185,-5.2238435 4.1738241,-5.6123962 3.4057548,-5.6123962 c -1.5993914,0 -2.93673567,1.2831275 -2.93673567,2.882519 0,1.6174636 1.32830817,2.90059119 2.94577177,2.90059119 1.3463804,0 2.222883,-1.06626095 2.222883,-2.03312469 0,-0.081325 0,-0.1536139 -0.1355416,-0.1536139 -0.081325,0 -0.1084334,0.036145 -0.1174695,0.1174695 -0.063253,1.22891089 -1.0481887,1.7981858 -1.897583,1.7981858 -0.6777082,0 -2.1867386,-0.40662494 -2.1867386,-2.6295079 0,-2.141558 1.4367415,-2.6204719 2.1867386,-2.6204719 0.7499971,0 1.6807164,0.5331305 1.8795108,1.9066192 0.00904,0.063253 0.018072,0.1174694 0.1355417,0.1174694 0.1355416,0 0.1355416,-0.054217 0.1355416,-0.2078305 z m 3.8222744,3.0270967 c 0,-0.7771054 -0.7499971,-1.1746942 -1.481922,-1.1746942 -0.659636,0 -1.2469831,0.2530111 -1.2469831,0.7771054 0,0.243975 0.16265,0.3795166 0.3704805,0.3795166 0.2259027,0 0.3795166,-0.1536138 0.3795166,-0.3704805 0,-0.1897583 -0.1174694,-0.3252999 -0.2981916,-0.3704805 0.2981916,-0.1987944 0.7228888,-0.1987944 0.7861415,-0.1987944 0.4427694,0 0.8855388,0.3162639 0.8855388,0.9668638 v 0.2439749 c -0.4608416,0.027108 -0.9939721,0.054217 -1.5542109,0.2801194 -0.6957805,0.3072278 -0.8313221,0.7680693 -0.8313221,1.03011653 0,0.68674434 0.8042138,0.89457487 1.3554165,0.89457487 0.578311,0 0.9397554,-0.32529996 1.1114415,-0.65059991 0.04518,0.30722773 0.253011,0.60541936 0.5963832,0.60541936 0.081325,0 0.7590328,-0.02710833 0.7590328,-0.74999711 V -1.1575941 h -0.243975 v 0.44276934 c 0,0.32529995 -0.117469,0.45180548 -0.2891551,0.45180548 -0.2981916,0 -0.2981916,-0.37048049 -0.2981916,-0.45180548 z M 8.854529,-1.1214497 c 0,0.76806933 -0.6505999,0.97589985 -0.9668638,0.97589985 -0.415661,0 -0.7680693,-0.2801194 -0.7680693,-0.65963601 0,-0.52409434 0.496986,-1.06626094 1.7349331,-1.11144154 z m 3.591854,2.4036052 c -0.506023,0 -0.60542,0 -0.60542,-0.3614444 v -1.31023591 c 0.370481,0.40662494 0.777106,0.46987771 1.039153,0.46987771 1.012044,0 1.888547,-0.78614155 1.888547,-1.807222 0,-0.993972 -0.804214,-1.7891497 -1.771078,-1.7891497 -0.316264,0 -0.777105,0.081325 -1.18373,0.4969861 v -0.4969861 l -1.18373,0.090361 v 0.2620472 c 0.560238,0 0.605419,0.04518 0.605419,0.3795166 v 3.704805 c 0,0.3614444 -0.0994,0.3614444 -0.605419,0.3614444 v 0.2620472 c 0.343372,-0.027108 0.69578,-0.027108 0.903611,-0.027108 0.234938,0 0.569274,0 0.912647,0.027108 z m -0.60542,-3.9397439 c 0.180722,-0.3162638 0.578311,-0.6144554 1.084333,-0.6144554 0.614456,0 1.129514,0.6777082 1.129514,1.5451747 0,0.92168324 -0.569275,1.58131925 -1.219875,1.58131925 -0.280119,0 -0.641563,-0.11746943 -0.894575,-0.51505825 -0.0994,-0.13554165 -0.0994,-0.14457776 -0.0994,-0.29819163 z m 6.557957,0.2801194 c 0,-0.7771054 -0.749997,-1.1746942 -1.481922,-1.1746942 -0.659636,0 -1.246983,0.2530111 -1.246983,0.7771054 0,0.243975 0.16265,0.3795166 0.37048,0.3795166 0.225903,0 0.379517,-0.1536138 0.379517,-0.3704805 0,-0.1897583 -0.11747,-0.3252999 -0.298192,-0.3704805 0.298192,-0.1987944 0.722889,-0.1987944 0.786142,-0.1987944 0.442769,0 0.885539,0.3162639 0.885539,0.9668638 v 0.2439749 c -0.460842,0.027108 -0.993973,0.054217 -1.554211,0.2801194 -0.695781,0.3072278 -0.831322,0.7680693 -0.831322,1.03011653 0,0.68674434 0.804213,0.89457487 1.355416,0.89457487 0.578311,0 0.939755,-0.32529996 1.111442,-0.65059991 0.04518,0.30722773 0.253011,0.60541936 0.596383,0.60541936 0.08132,0 0.759033,-0.02710833 0.759033,-0.74999711 V -1.1575941 h -0.243975 v 0.44276934 c 0,0.32529995 -0.117469,0.45180548 -0.289155,0.45180548 -0.298192,0 -0.298192,-0.37048049 -0.298192,-0.45180548 z m -0.605419,1.2560193 c 0,0.76806933 -0.6506,0.97589985 -0.966864,0.97589985 -0.415661,0 -0.76807,-0.2801194 -0.76807,-0.65963601 0,-0.52409434 0.496986,-1.06626094 1.734934,-1.11144154 z m 4.432211,-2.0421608 c -0.225902,0.072289 -0.262047,0.2530111 -0.262047,0.3524083 0,0.2078305 0.153614,0.3704805 0.379517,0.3704805 0.20783,0 0.37048,-0.1445778 0.37048,-0.3795166 0,-0.4969861 -0.542166,-0.7319249 -1.292163,-0.7319249 -1.102406,0 -1.852403,0.8855387 -1.852403,1.8252941 0,1.02108045 0.831322,1.807222 1.83433,1.807222 1.120478,0 1.400597,-0.93975542 1.400597,-1.03915263 0,-0.0903611 -0.108433,-0.0903611 -0.126505,-0.0903611 -0.05422,0 -0.0994,0 -0.11747,0.081325 -0.06325,0.17168608 -0.280119,0.79517765 -1.075297,0.79517765 -0.496986,0 -1.210838,-0.37951661 -1.210838,-1.55421092 0,-1.1475859 0.596383,-1.5813192 1.174694,-1.5813192 0.07229,0 0.496986,0 0.777105,0.1445778 z m 2.381015,-1.7439692 c 0,-0.2349388 -0.180722,-0.4518055 -0.442769,-0.4518055 -0.234939,0 -0.442769,0.1897583 -0.442769,0.4427694 0,0.2801194 0.234938,0.4427694 0.442769,0.4427694 0.271083,0 0.442769,-0.2259028 0.442769,-0.4337333 z m -1.192766,1.481922 v 0.2620472 c 0.506022,0 0.578311,0.04518 0.578311,0.4337333 v 2.10541354 c 0,0.36144438 -0.0994,0.36144438 -0.60542,0.36144438 V -9.7209264e-4 C 23.69408,-0.02808042 24.145886,-0.02808042 24.263355,-0.02808042 c 0.108433,0 0.578311,0 0.858431,0.0271083274 V -0.26301928 c -0.515059,0 -0.551203,-0.0451805 -0.551203,-0.35240827 V -3.5160188 Z m 3.474384,0.2530111 h 1.18373 v -0.2620472 h -1.18373 V -4.8985436 H 26.64437 c -0.009,0.7228888 -0.334336,1.481922 -1.075297,1.4999942 v 0.2259028 h 0.713853 v 2.17770244 c 0,0.9307193 0.713852,1.07529706 1.084333,1.07529706 0.53313,0 0.849394,-0.47891382 0.849394,-1.07529706 V -1.4467497 h -0.243975 v 0.4337333 c 0,0.55120271 -0.243975,0.84035822 -0.551203,0.84035822 -0.53313,0 -0.53313,-0.67770823 -0.53313,-0.80421376 z m 5.105402,0.5421666 c 0.198794,-0.4518055 0.48795,-0.5331305 0.759033,-0.5421666 v -0.2620472 c -0.280119,0.027108 -0.298191,0.027108 -0.632527,0.027108 -0.03614,0 -0.451806,0 -0.686745,-0.027108 v 0.2620472 c 0.234939,0.018072 0.343372,0.1445777 0.343372,0.3252999 0,0.045181 -0.009,0.1084334 -0.04518,0.1987945 l -0.858431,1.93372744 -0.921683,-2.08734134 c -0.05422,-0.1265055 -0.05422,-0.1355417 -0.05422,-0.1716861 0,-0.1897583 0.243974,-0.1987944 0.424697,-0.1987944 v -0.2620472 c -0.361445,0.027108 -0.704817,0.027108 -0.885539,0.027108 -0.16265,0 -0.542167,0 -0.804214,-0.027108 v 0.2620472 c 0.415661,0 0.533131,0.018072 0.668672,0.3162638 l 1.25602,2.85541070736 C 30.195561,0.83938611 29.960622,1.3996249 29.400383,1.3996249 c -0.198794,0 -0.325299,-0.090361 -0.325299,-0.090361 0.05422,-0.018072 0.234938,-0.1084333 0.234938,-0.33433604 0,-0.22590274 -0.16265,-0.34337217 -0.343372,-0.34337217 -0.153614,0 -0.334336,0.0993972 -0.334336,0.34337217 0,0.35240824 0.334336,0.65059994 0.768069,0.65059994 0.713853,0 1.09337,-0.84939435 1.120478,-0.93071934 z m 7.750723,0.9307193 c 0,-0.9939721 -0.822286,-1.8524025 -1.870475,-1.8524025 -1.057224,0 -1.87951,0.8584304 -1.87951,1.8524025 0,0.99397205 0.85843,1.7801136 1.87951,1.7801136 1.030117,0 1.870475,-0.78614155 1.870475,-1.7801136 z m -1.870475,1.52710252 c -0.433733,0 -0.768069,-0.19879441 -0.939755,-0.47891381 -0.198794,-0.32529995 -0.225903,-0.72288881 -0.225903,-1.12047761 0,-0.2981916 0,-0.7771054 0.243975,-1.1204776 0.207831,-0.2801194 0.542167,-0.4427694 0.921683,-0.4427694 0.415661,0 0.759034,0.1987944 0.939756,0.4789138 0.216866,0.3343361 0.225903,0.7680694 0.225903,1.0843332 0,0.3704805 -0.01807,0.80421377 -0.243975,1.13854983 -0.216867,0.32529995 -0.569275,0.46084159 -0.921684,0.46084159 z M 41.51103,-3.1726466 h 0.957827 v -0.2620472 h -0.9759 v -0.903611 c 0,-0.6957804 0.388553,-1.0481887 0.740961,-1.0481887 0.126506,0 0.198795,0.027108 0.225903,0.036144 -0.135542,0.072289 -0.180722,0.2078306 -0.180722,0.3162639 0,0.2078305 0.153614,0.3524083 0.361444,0.3524083 0.216867,0 0.361445,-0.1445778 0.361445,-0.3524083 0,-0.3433722 -0.343372,-0.578311 -0.759034,-0.578311 -0.596383,0 -1.310235,0.4337332 -1.310235,1.2831275 v 0.8945749 h -0.6506 v 0.2620472 h 0.6506 v 2.54818294 c 0,0.36144438 -0.0994,0.36144438 -0.60542,0.36144438 V -9.7209264e-4 C 40.634527,-0.02808042 41.077296,-0.02808042 41.267055,-0.02808042 c 0.469877,0 0.48795,0 1.003008,0.0271083274 V -0.26301928 h -0.153614 c -0.587347,0 -0.605419,-0.0903611 -0.605419,-0.3795166 z m 0,0"
             style="fill:#000000;fill-opacity:1;fill-rule:nonzero;stroke:none"
             id="path196" />
          <path
             d="m 50.506477,-2.6756606 h -2.2771 c 0.198795,-0.7680693 0.243975,-0.9578276 0.271083,-1.1475859 0.11747,-0.6144555 0.153614,-1.1024054 0.153614,-1.1385498 0,-0.1987945 -0.117469,-0.4789139 -0.569275,-0.4789139 -1.626499,0 -2.503002,1.3463804 -2.503002,1.4999943 0,0.054217 0.03614,0.063253 0.08132,0.063253 0.108433,0 0.460842,-0.1265055 0.623492,-0.3795166 0.216866,-0.3704805 0.433733,-0.7228888 1.237947,-0.7228888 0.37048,0 0.415661,0.2530111 0.415661,0.3704805 0,0.045181 -0.02711,0.4969861 -0.11747,0.9668638 -0.07229,0.3885527 -0.108433,0.5331305 -0.216866,0.9668637 H 47.27155 c -0.198795,0.018072 -0.587348,0.2620472 -0.587348,0.406625 0,0.054217 0.06325,0.054217 0.198795,0.054217 h 0.596383 c -0.216867,0.8042138 -0.524094,1.67168032 -0.804214,2.37649688 -0.02711,0.0722889 -0.02711,0.0903611 -0.02711,0.10843332 0,0.0180722 0,0.0542167 0.08132,0.0542167 0.0994,0 0.3253,-0.0903611 0.48795,-0.22590275 0.108433,-0.09036109 0.108433,-0.10843331 0.243975,-0.45180548 0.225903,-0.59638325 0.460841,-1.28312767 0.632528,-1.86143867 h 1.933727 c 0.08132,0 0.234939,0 0.379517,-0.081325 -0.0994,0.3343361 -0.216867,0.8042138 -0.28012,1.1746943 -0.108433,0.67770827 -0.126505,1.02108044 -0.126505,1.03915266 0,0.26204718 0.171686,0.47891382 0.506022,0.47891382 1.13855,0 1.743969,-0.68674434 1.743969,-0.93975542 0,-0.0180722 -0.009,-0.0632528 -0.08132,-0.0632528 -0.135542,0 -0.506022,0.16264998 -0.614455,0.37951661 -0.01807,0.0271083 -0.04518,0.081325 -0.04518,0.10843332 -0.253011,0.05421666 -0.262047,0.05421666 -0.433733,0.05421666 -0.243975,0 -0.370481,-0.17168609 -0.370481,-0.3704805 0,-0.50602215 0.298192,-2.30420795 1.265056,-4.77106595 0.05422,-0.1445778 0.05422,-0.16265 0.05422,-0.1716861 0,-0.063253 -0.06325,-0.063253 -0.08132,-0.063253 -0.135541,0 -0.379516,0.1265056 -0.53313,0.2620472 -0.05422,0.054217 -0.08132,0.1084333 -0.108434,0.1897583 -0.135541,0.3433722 -0.316263,0.8313221 -0.325299,0.8584305 z m 0,0"
             style="fill:#000000;fill-opacity:1;fill-rule:nonzero;stroke:none"
             id="path197" />
        </g>
      </g>
      <path
         d="m 2.2217582,-2.0883033 c 0,-0.090361 0,-0.1445777 -0.081325,-0.1445777 -0.018072,0 -0.036144,0.00904 -0.081325,0.036144 -0.018072,0.018072 -0.1084334,0.099397 -0.1265056,0.099397 -0.00904,0 -0.018072,0 -0.04518,-0.018072 -0.1174694,-0.063253 -0.2981916,-0.1174694 -0.5512027,-0.1174694 -0.822286,0 -0.98493598,0.3795166 -0.98493598,0.6054193 0,0.4698777 0.56927491,0.5602388 1.03011648,0.63252769 0.2891555,0.0451805 0.7499971,0.10843332 0.7499971,0.45180549 0,0.17168608 -0.1445777,0.43373327 -0.7499971,0.43373327 -0.334336,0 -0.66867209,-0.12650554 -0.81324985,-0.65059991 -0.0271083,-0.0903611 -0.0271083,-0.10843331 -0.11746942,-0.10843331 -0.0993972,0 -0.0993972,0.0451805 -0.0993972,0.14457775 v 0.64156379 c 0,0.0813249925 0,0.13554165 0.0722889,0.13554165 0.0451805,0 0.0451805,0 0.14457775,-0.09939721 L 0.69465569,-0.17264802 C 0.94766676,0.05325472 1.2548945,0.05325472 1.3814,0.05325472 c 0.8313221,0 0.9939721,-0.43373327 0.9939721,-0.67770823 0,-0.22590274 -0.1174694,-0.38855269 -0.3072277,-0.51505829 C 1.86935,-1.2569812 1.7157361,-1.2840895 1.300075,-1.3473423 0.9838112,-1.3925228 0.59525848,-1.4557756 0.59525848,-1.7178228 c 0,-0.1716861 0.19879442,-0.3614444 0.74096102,-0.3614444 0.4066249,0 0.6505999,0.16265 0.6777082,0.5060222 0.00904,0.072289 0.00904,0.099397 0.1084333,0.099397 0.099397,0 0.099397,-0.027108 0.099397,-0.1355417 z m 4.5316091,0.4608416 c 0.1174694,-0.2710833 0.334336,-0.2981916 0.4789138,-0.2981916 v -0.2168666 c -0.1445778,0.00904 -0.2710833,0.018072 -0.4337333,0.018072 -0.16265,0 -0.3704805,-0.00904 -0.5331305,-0.018072 v 0.2168666 c 0.2168667,0 0.2891556,0.1084333 0.2891556,0.1987944 0,0.027108 -0.00904,0.072289 -0.027108,0.090361 L 5.9852979,-0.39855077 5.3979508,-1.7449311 c -0.036144,-0.054217 -0.036144,-0.072289 -0.036144,-0.072289 0,-0.1084333 0.1987944,-0.1084333 0.2981916,-0.1084333 V -2.14252 c -0.1897583,0.00904 -0.3975888,0.018072 -0.5873471,0.018072 -0.1807222,0 -0.3253,-0.00904 -0.5060222,-0.018072 v 0.2168666 c 0.099397,0 0.2349389,0 0.2981916,0.027108 0.063253,0.018072 0.1355417,0.1174694 0.1355417,0.1716861 0,0 -0.027108,0.045181 -0.027108,0.054217 L 4.4491593,-0.47083964 3.8889205,-1.7449311 c -0.00904,-0.018072 -0.027108,-0.045181 -0.027108,-0.072289 0,-0.1084333 0.1987944,-0.1084333 0.2981916,-0.1084333 V -2.14252 c -0.2078305,0.00904 -0.4156611,0.018072 -0.6234916,0.018072 -0.16265,0 -0.3704805,-0.00904 -0.5331305,-0.018072 v 0.2168666 c 0.2530111,0 0.3433722,0 0.406625,0.1445777 l 0.7499971,1.71686089 c 0.054217,0.10843332 0.099397,0.11746943 0.1716861,0.11746943 0.081325,0 0.1265055,-0.01807222 0.1626499,-0.10843332 l 0.6144555,-1.4096331 0.6234916,1.4096331 c 0.04518,0.0903611 0.081325,0.10843332 0.1626499,0.10843332 0.072289,0 0.1265056,-0.0090361 0.1716861,-0.11746943 z m 3.1536023,0.5060222 c 0.099397,0 0.1445774,0 0.1445774,-0.1174695 0,-0.334336 -0.1716858,-0.993972 -1.1024051,-0.993972 -0.7590332,0 -1.2921637,0.5421665 -1.2921637,1.1385498 0,0.63252767 0.6054194,1.14758592 1.3644526,1.14758592 0.7861416,0 1.0301162,-0.55120269 1.0301162,-0.6505999 0,-0.081325 -0.072289,-0.081325 -0.099397,-0.081325 -0.072289,0 -0.090361,0.0180722 -0.1174694,0.0903611 -0.1355417,0.34337217 -0.5060222,0.4608416 -0.7861416,0.4608416 -0.4066249,0 -0.6234915,-0.22590275 -0.7048165,-0.30722774 C 8.1539643,-0.66963406 8.1539643,-0.9858979 8.1539643,-1.1214395 Z M 8.1630004,-1.2750534 c 0.063253,-0.659636 0.5421666,-0.7951777 0.7771054,-0.7951777 0.6957805,0 0.7228888,0.6505999 0.7319249,0.7951777 z m 4.7891386,0.1536139 c 0.0994,0 0.144577,0 0.144577,-0.1174695 0,-0.334336 -0.171686,-0.993972 -1.102405,-0.993972 -0.759033,0 -1.292164,0.5421665 -1.292164,1.1385498 0,0.63252767 0.60542,1.14758592 1.364453,1.14758592 0.786141,0 1.030116,-0.55120269 1.030116,-0.6505999 0,-0.081325 -0.07229,-0.081325 -0.0994,-0.081325 -0.07229,0 -0.09036,0.0180722 -0.117469,0.0903611 -0.135542,0.34337217 -0.506022,0.4608416 -0.786142,0.4608416 -0.406625,0 -0.623491,-0.22590275 -0.704816,-0.30722774 C 11.19913,-0.66963407 11.19913,-0.98589791 11.19913,-1.1214395 Z m -1.74397,-0.1536139 c 0.06325,-0.659636 0.542167,-0.7951777 0.777106,-0.7951777 0.69578,0 0.722889,0.6505999 0.731925,0.7951777 z m 3.440499,-0.6505999 h 0.876503 v -0.2168666 h -0.876503 v -0.9216832 h -0.216866 c 0,0.4698777 -0.253012,0.9578276 -0.759034,0.9758998 v 0.16265 h 0.533131 v 1.30119979 c 0,0.5602388 0.460841,0.67770823 0.768069,0.67770823 0.379517,0 0.659636,-0.27108329 0.659636,-0.67770823 v -0.2801194 h -0.216867 v 0.26204718 c 0,0.3704805 -0.216866,0.51505826 -0.388552,0.51505826 -0.379517,0 -0.379517,-0.39758883 -0.379517,-0.49698604 z m 6.049676,-0.16265 c 0,-0.090361 0,-0.1445777 -0.08132,-0.1445777 -0.01807,0 -0.03614,0.00904 -0.08132,0.036144 -0.01807,0.018072 -0.108434,0.099397 -0.126506,0.099397 -0.009,0 -0.01807,0 -0.04518,-0.018072 -0.11747,-0.063253 -0.298192,-0.1174694 -0.551203,-0.1174694 -0.822286,0 -0.984936,0.3795166 -0.984936,0.6054193 0,0.4698777 0.569275,0.5602388 1.030116,0.63252769 0.289156,0.0451805 0.749998,0.10843332 0.749998,0.45180549 0,0.17168608 -0.144578,0.43373327 -0.749998,0.43373327 -0.334336,0 -0.668672,-0.12650554 -0.813249,-0.65059991 -0.02711,-0.0903611 -0.02711,-0.10843331 -0.11747,-0.10843331 -0.0994,0 -0.0994,0.0451805 -0.0994,0.14457775 v 0.64156379 c 0,0.0813249925 0,0.13554165 0.07229,0.13554165 0.04518,0 0.04518,0 0.144578,-0.09939721 l 0.126505,-0.12650553 c 0.253011,0.22590274 0.560239,0.22590274 0.686744,0.22590274 0.831323,0 0.993972,-0.43373327 0.993972,-0.67770823 0,-0.22590274 -0.117469,-0.38855269 -0.307227,-0.51505829 -0.198795,-0.1174694 -0.352409,-0.1445777 -0.76807,-0.2078305 -0.316263,-0.045181 -0.704816,-0.1084333 -0.704816,-0.3704805 0,-0.1716861 0.198794,-0.3614444 0.740961,-0.3614444 0.406625,0 0.6506,0.16265 0.677708,0.5060222 0.009,0.072289 0.009,0.099397 0.108433,0.099397 0.0994,0 0.0994,-0.027108 0.0994,-0.1355417 z m 2.152853,2.83733847 h -0.09036 c -0.316264,0 -0.316264,-0.0451805 -0.316264,-0.19879441 v -0.77710544 c 0.20783,0.1897583 0.478914,0.2801194 0.759033,0.2801194 0.759033,0 1.373489,-0.50602214 1.373489,-1.12951372 0,-0.5963832 -0.551203,-1.1295137 -1.283128,-1.1295137 -0.397589,0 -0.704816,0.1445777 -0.876502,0.2891555 v -0.2891555 l -0.831323,0.063253 v 0.2168666 c 0.361445,0 0.415661,0 0.415661,0.2078305 v 2.26806356 c 0,0.15361386 0,0.19879441 -0.325299,0.19879441 h -0.09036 V 0.9659018 c 0.216867,-0.0180722 0.424698,-0.0180722 0.632528,-0.0180722 0.216867,0 0.424697,0 0.632528,0.0180722 z M 22.444572,-1.65457 c 0.20783,-0.3072278 0.587347,-0.3704805 0.786141,-0.3704805 0.496986,0 0.849395,0.4427694 0.849395,0.9487915 0,0.54216659 -0.415661,0.96686375 -0.903611,0.96686375 -0.225903,0 -0.48795,-0.0993972 -0.668672,-0.31626385 -0.06325,-0.0903611 -0.06325,-0.0993972 -0.06325,-0.1897583 z m 5.731152,0.5963832 c 0,-0.6234915 -0.587347,-1.1746942 -1.373488,-1.1746942 -0.777106,0 -1.364453,0.5512027 -1.364453,1.1746942 0,0.59638327 0.587347,1.11144152 1.364453,1.11144152 0.786141,0 1.373488,-0.51505825 1.373488,-1.11144152 z m -1.373488,0.93071933 c -0.867467,0 -0.867467,-0.740961 -0.867467,-0.98493593 0,-0.2259028 0,-0.9578277 0.867467,-0.9578277 0.876502,0 0.876502,0.7319249 0.876502,0.9578277 0,0.24397493 0,0.98493593 -0.876502,0.98493593 z m 2.929958,-1.79818583 h 0.876503 v -0.2168666 h -0.876503 v -0.9216832 h -0.216866 c 0,0.4698777 -0.253011,0.9578276 -0.759034,0.9758998 v 0.16265 h 0.533131 v 1.30119979 c 0,0.5602388 0.460842,0.67770823 0.768069,0.67770823 0.379517,0 0.659636,-0.27108329 0.659636,-0.67770823 v -0.2801194 h -0.216866 v 0.26204718 c 0,0.3704805 -0.216867,0.51505826 -0.388553,0.51505826 -0.379517,0 -0.379517,-0.39758883 -0.379517,-0.49698604 z m 0,0"
         style="fill:#000000;fill-opacity:1;fill-rule:nonzero;stroke:none"
         aria-label="sweetspot"
         transform="matrix(1.7291733,0,0,1.7291733,1830.2324,200.41963)"
         opacity="1"
         id="path198" />
      <path
         d="m 72,756 8,-4"
         style="fill:none;stroke:#000000;stroke-width:0.4;stroke-linecap:butt;stroke-linejoin:round;stroke-miterlimit:10;stroke-dasharray:none;stroke-opacity:1"
         transform="matrix(1.7291733,0,0,-1.7291733,1759.6873,1507.6902)"
         id="path199" />
      <path
         d="m 80,752 -2.2365,2.235 0.0899,-1.162 -0.9834,-0.625 z"
         style="fill:#000000;fill-opacity:1;fill-rule:evenodd;stroke:#000000;stroke-width:0.4;stroke-linecap:butt;stroke-linejoin:round;stroke-miterlimit:10;stroke-dasharray:none;stroke-opacity:1"
         transform="matrix(1.7291733,0,0,-1.7291733,1759.6873,1507.6902)"
         id="path200" />
      <path
         d="m 2.131649,-2.1408134 v 0.2168666 c 0.3704805,0 0.415661,0.036144 0.415661,0.2801194 v 0.80421376 c 0,0.46084159 -0.3433722,0.73192489 -0.7590332,0.73192489 -0.5060222,0 -0.5240944,-0.20783053 -0.5240944,-0.4608416 V -2.2040662 l -0.8584304,0.063253 v 0.2168666 c 0.38855271,0 0.41566104,0.036144 0.41566104,0.2891555 v 1.08433317 c 0.0451805,0.5602388 0.60541936,0.60541935 0.93071926,0.60541935 0.4156611,0 0.6596361,-0.1897583 0.8132499,-0.42469716 V 0.05496122 L 3.3967043,7.4456195e-4 V -0.21612207 c -0.3614444,0 -0.4066249,-0.0361444 -0.4066249,-0.2801194 V -2.2040662 Z m 4.5948618,0.6415637 c 0,-0.5512026 -0.3795167,-0.7048165 -0.8403582,-0.7048165 -0.5331305,0 -0.8132499,0.2981916 -0.9216832,0.4879499 v -0.4879499 l -0.822286,0.063253 v 0.2168666 c 0.3704805,0 0.415661,0.036144 0.415661,0.2801194 v 1.22891091 c 0,0.15361387 0,0.19879442 -0.3252999,0.19879442 H 4.1421834 V 7.4456195e-4 C 4.35905,-0.01732766 4.5668805,-0.01732766 4.7837472,-0.01732766 c 0.2078305,0 0.4246971,0 0.6325276,0.018072222 V -0.21612207 h -0.090361 c -0.3252999,0 -0.3252999,-0.0451805 -0.3252999,-0.19879442 V -1.282383 c 0,-0.5602388 0.5150583,-0.7499971 0.822286,-0.7499971 0.3704805,0 0.4608416,0.2078305 0.4608416,0.5240943 v 1.09336931 c 0,0.15361387 0,0.19879442 -0.3253,0.19879442 H 5.8680803 V 7.4456195e-4 C 6.084947,-0.01732766 6.2927775,-0.01732766 6.500608,-0.01732766 c 0.2078305,0 0.4246972,0 0.6325277,0.018072222 V -0.21612207 h -0.090361 c -0.3162638,0 -0.3162638,-0.0451805 -0.3162638,-0.19879442 z m 2.8508926,-1.897583 v 0.2168666 c 0.3614444,0 0.4066249,0.036145 0.4066249,0.2801194 v 0.9668638 C 9.875595,-2.023344 9.6045117,-2.2040662 9.1978868,-2.2040662 c -0.7499971,0 -1.3644526,0.5060221 -1.3644526,1.1385498 0,0.59638326 0.5602388,1.12047762 1.3011998,1.12047762 0.4066249,0 0.6957805,-0.18072219 0.8313221,-0.29819162 V 0.05496122 L 10.824387,7.4456195e-4 V -0.21612207 c -0.370481,0 -0.415662,-0.0361444 -0.415662,-0.2801194 V -3.4510494 Z m 0.3885527,2.85541068 c -0.2349389,0.3704805 -0.6054194,0.43373327 -0.8042138,0.43373327 -0.2439749,0 -0.496986,-0.0993972 -0.659636,-0.31626385 -0.16265,-0.20783052 -0.1716861,-0.48794992 -0.1716861,-0.6415638 0,-0.1355416 0.00904,-0.4698777 0.2259028,-0.6957804 0.1716861,-0.1807222 0.4337332,-0.2710833 0.6777082,-0.2710833 0.1355417,0 0.496986,0.027108 0.7319249,0.3614444 z M 13.783712,-1.119733 c 0.0994,0 0.144578,0 0.144578,-0.1174695 0,-0.334336 -0.171686,-0.993972 -1.102405,-0.993972 -0.759033,0 -1.292164,0.5421665 -1.292164,1.1385498 0,0.63252767 0.605419,1.14758592 1.364453,1.14758592 0.786141,0 1.030116,-0.55120269 1.030116,-0.6505999 0,-0.081325 -0.07229,-0.081325 -0.0994,-0.081325 -0.07229,0 -0.09036,0.0180722 -0.117469,0.0903611 -0.135542,0.34337217 -0.506023,0.4608416 -0.786142,0.4608416 -0.406625,0 -0.623492,-0.22590275 -0.704817,-0.30722774 C 12.030707,-0.66792756 12.030707,-0.9841914 12.030707,-1.119733 Z m -1.743969,-0.1536139 c 0.06325,-0.659636 0.542167,-0.7951777 0.777106,-0.7951777 0.69578,0 0.722889,0.6505999 0.731925,0.7951777 z m 3.422427,0.16265 c 0,-0.4698777 0.271083,-0.9126471 0.740961,-0.9216832 -0.009,0 -0.07229,0.063253 -0.07229,0.1716861 0,0.1807222 0.144578,0.2620471 0.253011,0.2620471 0.126506,0 0.253011,-0.090361 0.253011,-0.2620471 0,-0.1807222 -0.180722,-0.3433722 -0.442769,-0.3433722 -0.253011,0 -0.569275,0.1355416 -0.759033,0.5512027 h -0.009 v -0.5512027 l -0.795177,0.063253 v 0.2168666 c 0.37048,0 0.415661,0.036144 0.415661,0.2801194 v 1.22891091 c 0,0.15361387 0,0.19879442 -0.3253,0.19879442 h -0.09036 V 7.4456195e-4 c 0.20783,-0.018072222 0.433733,-0.018072222 0.641564,-0.018072222 0.262047,0 0.506022,0.00903611 0.713852,0.018072222 V -0.21612207 H 15.85076 c -0.388553,0 -0.388553,-0.0542167 -0.388553,-0.20783053 z m 3.350138,0.22590271 V -1.2643108 h -1.653609 v 0.37951661 z m 1.746228,-1.03915261 h 0.704816 V -2.1408134 H 20.540464 V -2.68298 c 0,-0.4698777 0.307227,-0.659636 0.53313,-0.659636 0.03614,0 0.135542,0.00904 0.135542,0.018072 l -0.009,0.018072 c -0.02711,0.027108 -0.08132,0.090361 -0.08132,0.1897583 0,0.1445778 0.0994,0.2530111 0.253011,0.2530111 0.16265,0 0.262047,-0.1084333 0.262047,-0.2530111 0,-0.2168666 -0.216867,-0.3885527 -0.551203,-0.3885527 -0.433733,0 -0.948791,0.2710833 -0.948791,0.8132499 v 0.5512027 h -0.478914 v 0.2168666 h 0.478914 v 1.50903031 c 0,0.15361387 0,0.19879442 -0.3253,0.19879442 H 19.71822 V 7.4456195e-4 c 0.20783,-0.018072222 0.433733,-0.018072222 0.641563,-0.018072222 0.262048,0 0.506022,0.00903611 0.713853,0.018072222 V -0.21612207 h -0.135542 c -0.379516,0 -0.379516,-0.0542167 -0.379516,-0.20783053 z m 2.179961,-1.1385498 c 0,-0.1716861 -0.126505,-0.3072278 -0.298191,-0.3072278 -0.153614,0 -0.307228,0.1174695 -0.307228,0.3072278 0,0.171686 0.153614,0.2981916 0.307228,0.2981916 0.171686,0 0.298191,-0.1355417 0.298191,-0.2981916 z m -0.822286,0.9216832 v 0.2168666 c 0.352409,0 0.388553,0.036144 0.388553,0.2801194 v 1.22891091 c 0,0.15361387 0,0.19879442 -0.316264,0.19879442 H 21.89814 V 7.4456195e-4 c 0.198794,-0.018072222 0.406625,-0.018072222 0.614455,-0.018072222 0.189759,0 0.406625,0 0.596384,0.018072222 V -0.21612207 c -0.334336,0 -0.379517,0 -0.379517,-0.19879442 V -2.2040662 Z m 2.801194,0.2168666 h 0.876503 v -0.2168666 h -0.876503 v -0.9216832 h -0.216866 c 0,0.4698777 -0.253011,0.9578276 -0.759034,0.9758998 v 0.16265 h 0.533131 v 1.30119979 c 0,0.5602388 0.460841,0.67770823 0.768069,0.67770823 0.379517,0 0.659636,-0.27108329 0.659636,-0.67770823 v -0.2801194 h -0.216866 v 0.26204718 c 0,0.3704805 -0.216867,0.51505826 -0.388553,0.51505826 -0.379517,0 -0.379517,-0.39758883 -0.379517,-0.49698604 z m 2.697279,0 h 0.876503 v -0.2168666 h -0.876503 v -0.9216832 h -0.216867 c 0,0.4698777 -0.253011,0.9578276 -0.759033,0.9758998 v 0.16265 h 0.533131 v 1.30119979 c 0,0.5602388 0.460841,0.67770823 0.768069,0.67770823 0.379517,0 0.659636,-0.27108329 0.659636,-0.67770823 v -0.2801194 h -0.216867 v 0.26204718 c 0,0.3704805 -0.216866,0.51505826 -0.388552,0.51505826 -0.379517,0 -0.379517,-0.39758883 -0.379517,-0.49698604 z m 2.726646,-1.1385498 c 0,-0.1716861 -0.126505,-0.3072278 -0.298191,-0.3072278 -0.153614,0 -0.307228,0.1174695 -0.307228,0.3072278 0,0.171686 0.153614,0.2981916 0.307228,0.2981916 0.171686,0 0.298191,-0.1355417 0.298191,-0.2981916 z m -0.822286,0.9216832 v 0.2168666 c 0.352408,0 0.388553,0.036144 0.388553,0.2801194 v 1.22891091 c 0,0.15361387 0,0.19879442 -0.316264,0.19879442 h -0.09036 V 7.4456195e-4 c 0.198794,-0.018072222 0.406625,-0.018072222 0.614455,-0.018072222 0.189759,0 0.406625,0 0.596384,0.018072222 V -0.21612207 c -0.334336,0 -0.379517,0 -0.379517,-0.19879442 V -2.2040662 Z m 4.563236,0.6415637 c 0,-0.5512026 -0.379517,-0.7048165 -0.840359,-0.7048165 -0.53313,0 -0.81325,0.2981916 -0.921683,0.4879499 v -0.4879499 l -0.822286,0.063253 v 0.2168666 c 0.370481,0 0.415661,0.036144 0.415661,0.2801194 v 1.22891091 c 0,0.15361387 0,0.19879442 -0.3253,0.19879442 h -0.09036 V 7.4456195e-4 c 0.216867,-0.018072222 0.424697,-0.018072222 0.641564,-0.018072222 0.20783,0 0.424697,0 0.632528,0.018072222 V -0.21612207 h -0.09036 c -0.3253,0 -0.3253,-0.0451805 -0.3253,-0.19879442 V -1.282383 c 0,-0.5602388 0.515058,-0.7499971 0.822286,-0.7499971 0.37048,0 0.460841,0.2078305 0.460841,0.5240943 v 1.09336931 c 0,0.15361387 0,0.19879442 -0.3253,0.19879442 h -0.09036 V 7.4456195e-4 c 0.216867,-0.018072222 0.424697,-0.018072222 0.632528,-0.018072222 0.20783,0 0.424697,0 0.632527,0.018072222 V -0.21612207 h -0.09036 c -0.316263,0 -0.316263,-0.0451805 -0.316263,-0.19879442 z m 3.031614,-0.4337332 c 0.243975,-0.1445778 0.469878,-0.1536139 0.551203,-0.1536139 -0.01807,0.018072 -0.04518,0.045181 -0.04518,0.1174694 0,0.099397 0.06325,0.1807222 0.180722,0.1807222 0.126505,0 0.189758,-0.081325 0.189758,-0.1807222 0,-0.1355416 -0.108433,-0.2891555 -0.343372,-0.2891555 -0.11747,0 -0.388553,0.027108 -0.6506,0.2349389 -0.108433,-0.072289 -0.334336,-0.1807222 -0.641564,-0.1807222 -0.587347,0 -1.003008,0.3524083 -1.003008,0.7319249 0,0.2620472 0.189758,0.4427694 0.262047,0.50602212 -0.117469,0.14457776 -0.144578,0.28915551 -0.144578,0.39758883 0,0.26204718 0.16265,0.43373327 0.207831,0.4608416 -0.243975,0.07228887 -0.533131,0.22590274 -0.533131,0.48794992 0,0.39758883 0.6506,0.65059993 1.373489,0.65059993 0.668672,0 1.382525,-0.22590277 1.382525,-0.65963604 0,-0.21686663 -0.126506,-0.4608416 -0.370481,-0.57831102 -0.334336,-0.16264998 -0.659636,-0.16264998 -1.18373,-0.16264998 -0.126505,0 -0.352408,0 -0.37048,0 -0.243975,-0.0451806 -0.298192,-0.23493885 -0.298192,-0.33433606 0,-0.0993972 0.05422,-0.18072219 0.06325,-0.18072219 0.009,0 0.02711,0.009036 0.03614,0.0180722 0.198795,0.0993972 0.397589,0.12650553 0.569275,0.12650553 0.587347,0 0.993972,-0.34337214 0.993972,-0.73192484 0,-0.2349389 -0.16265,-0.406625 -0.225903,-0.4608416 z m -0.759033,1.03011649 c -0.442769,0 -0.560239,-0.28915549 -0.560239,-0.56927489 0,-0.2710833 0.11747,-0.5602388 0.551203,-0.5602388 0.442769,0 0.560239,0.2891555 0.560239,0.5602388 0,0.2801194 -0.11747,0.56927489 -0.551203,0.56927489 z m 0,0.91264708 c 0.496986,0 1.201803,0 1.201803,0.3704805 0,0.24397496 -0.44277,0.47891382 -1.039153,0.47891382 -0.569275,0 -1.030116,-0.21686664 -1.030116,-0.47891382 0,-0.15361386 0.171686,-0.3704805 0.542166,-0.3704805 z m 0,0"
         style="fill:#000000;fill-opacity:1;fill-rule:nonzero;stroke:none"
         aria-label="under-fitting"
         transform="matrix(1.7291733,0,0,1.7291733,1825.3648,110.50262)"
         opacity="1"
         id="path201" />
      <path
         d="m 3.0630161,-1.0564803 c 0,-0.6234915 -0.5873471,-1.1746942 -1.3734886,-1.1746942 -0.77710548,0 -1.36445261,0.5512027 -1.36445261,1.1746942 0,0.59638327 0.58734713,1.11144152 1.36445261,1.11144152 0.7861415,0 1.3734886,-0.51505825 1.3734886,-1.11144152 z m -1.3734886,0.93071933 c -0.86746658,0 -0.86746658,-0.740961 -0.86746658,-0.98493593 0,-0.2259028 0,-0.9578277 0.86746658,-0.9578277 0.8765026,0 0.8765026,0.7319249 0.8765026,0.9578277 0,0.24397493 0,0.98493593 -0.8765026,0.98493593 z m 4.283116,-1.49999423 c 0.081325,-0.16265 0.2078305,-0.2981916 0.5240943,-0.2981916 v -0.2168666 c -0.1355416,0.00904 -0.2620471,0.018072 -0.4337332,0.018072 -0.00904,0 -0.3343361,-0.00904 -0.5150583,-0.018072 v 0.2168666 c 0.1355417,0 0.2259028,0.063253 0.2259028,0.1807222 0,0.045181 -0.027108,0.090361 -0.027108,0.099397 L 5.114213,-0.41491649 4.4274687,-1.7432246 c -0.00904,-0.018072 -0.018072,-0.045181 -0.018072,-0.081325 0,-0.099397 0.16265,-0.099397 0.2620472,-0.099397 v -0.2168666 c -0.2259028,0.00904 -0.5873472,0.018072 -0.6144555,0.018072 -0.1987944,0 -0.3524083,0 -0.5602388,-0.018072 v 0.2168666 c 0.2981916,0 0.3704805,0 0.4427694,0.1445777 l 0.8765026,1.71686089 c 0.036144,0.07228888 0.063253,0.11746943 0.1807222,0.11746943 0.1084333,0 0.1355417,-0.04518055 0.1716861,-0.11746943 z m 3.212337,0.5060222 c 0.099397,0 0.1445777,0 0.1445777,-0.1174695 0,-0.334336 -0.171686,-0.993972 -1.1024053,-0.993972 -0.7590333,0 -1.2921637,0.5421665 -1.2921637,1.1385498 0,0.63252767 0.6054193,1.14758592 1.3644525,1.14758592 0.7861416,0 1.0301165,-0.55120269 1.0301165,-0.6505999 0,-0.081325 -0.072289,-0.081325 -0.099397,-0.081325 -0.072289,0 -0.090361,0.0180722 -0.1174694,0.0903611 -0.1355416,0.34337217 -0.5060221,0.4608416 -0.7861415,0.4608416 -0.406625,0 -0.6234916,-0.22590275 -0.7048166,-0.30722774 C 7.4319752,-0.66792756 7.4319752,-0.9841914 7.4319752,-1.119733 Z M 7.4410113,-1.2733469 c 0.063253,-0.659636 0.5421666,-0.7951777 0.7771054,-0.7951777 0.6957805,0 0.7228888,0.6505999 0.7319249,0.7951777 z m 3.4246857,0.16265 c 0,-0.4698777 0.271083,-0.9126471 0.740961,-0.9216832 -0.009,0 -0.07229,0.063253 -0.07229,0.1716861 0,0.1807222 0.144578,0.2620471 0.253011,0.2620471 0.126506,0 0.253011,-0.090361 0.253011,-0.2620471 0,-0.1807222 -0.180722,-0.3433722 -0.442769,-0.3433722 -0.253011,0 -0.569275,0.1355416 -0.759033,0.5512027 h -0.009 v -0.5512027 l -0.795177,0.063253 v 0.2168666 c 0.37048,0 0.415661,0.036144 0.415661,0.2801194 v 1.22891091 c 0,0.15361387 0,0.19879442 -0.3253,0.19879442 h -0.09036 V 7.4456195e-4 c 0.20783,-0.018072222 0.433733,-0.018072222 0.641564,-0.018072222 0.262047,0 0.506022,0.00903611 0.713852,0.018072222 V -0.21612207 H 11.25425 c -0.388553,0 -0.388553,-0.0542167 -0.388553,-0.20783053 z m 3.347879,0.22590271 V -1.2643108 h -1.653609 v 0.37951661 z M 15.959804,-1.9239468 H 16.66462 V -2.1408134 H 15.941732 V -2.68298 c 0,-0.4698777 0.307227,-0.659636 0.53313,-0.659636 0.03614,0 0.135542,0.00904 0.135542,0.018072 l -0.009,0.018072 c -0.02711,0.027108 -0.08132,0.090361 -0.08132,0.1897583 0,0.1445778 0.0994,0.2530111 0.253011,0.2530111 0.16265,0 0.262047,-0.1084333 0.262047,-0.2530111 0,-0.2168666 -0.216867,-0.3885527 -0.551203,-0.3885527 -0.433733,0 -0.948791,0.2710833 -0.948791,0.8132499 v 0.5512027 h -0.478914 v 0.2168666 h 0.478914 v 1.50903031 c 0,0.15361387 0,0.19879442 -0.3253,0.19879442 h -0.09036 V 7.4456195e-4 c 0.20783,-0.018072222 0.433733,-0.018072222 0.641563,-0.018072222 0.262048,0 0.506022,0.00903611 0.713853,0.018072222 V -0.21612207 H 16.33932 c -0.379516,0 -0.379516,-0.0542167 -0.379516,-0.20783053 z m 2.179961,-1.1385498 c 0,-0.1716861 -0.126505,-0.3072278 -0.298191,-0.3072278 -0.153614,0 -0.307228,0.1174695 -0.307228,0.3072278 0,0.171686 0.153614,0.2981916 0.307228,0.2981916 0.171686,0 0.298191,-0.1355417 0.298191,-0.2981916 z m -0.822286,0.9216832 v 0.2168666 c 0.352409,0 0.388553,0.036144 0.388553,0.2801194 v 1.22891091 c 0,0.15361387 0,0.19879442 -0.316264,0.19879442 h -0.09036 V 7.4456195e-4 c 0.198794,-0.018072222 0.406625,-0.018072222 0.614455,-0.018072222 0.189759,0 0.406625,0 0.596384,0.018072222 V -0.21612207 c -0.334336,0 -0.379517,0 -0.379517,-0.19879442 V -2.2040662 Z m 2.801194,0.2168666 h 0.876503 v -0.2168666 h -0.876503 v -0.9216832 h -0.216866 c 0,0.4698777 -0.253011,0.9578276 -0.759034,0.9758998 v 0.16265 h 0.533131 v 1.30119979 c 0,0.5602388 0.460841,0.67770823 0.768069,0.67770823 0.379517,0 0.659636,-0.27108329 0.659636,-0.67770823 v -0.2801194 h -0.216866 v 0.26204718 c 0,0.3704805 -0.216867,0.51505826 -0.388553,0.51505826 -0.379517,0 -0.379517,-0.39758883 -0.379517,-0.49698604 z m 2.692761,0 h 0.876503 v -0.2168666 h -0.876503 v -0.9216832 h -0.216867 c 0,0.4698777 -0.253011,0.9578276 -0.759033,0.9758998 v 0.16265 h 0.533131 v 1.30119979 c 0,0.5602388 0.460841,0.67770823 0.768069,0.67770823 0.379517,0 0.659636,-0.27108329 0.659636,-0.67770823 v -0.2801194 h -0.216867 v 0.26204718 c 0,0.3704805 -0.216866,0.51505826 -0.388552,0.51505826 -0.379517,0 -0.379517,-0.39758883 -0.379517,-0.49698604 z m 2.726646,-1.1385498 c 0,-0.1716861 -0.126505,-0.3072278 -0.298192,-0.3072278 -0.153613,0 -0.307227,0.1174695 -0.307227,0.3072278 0,0.171686 0.153614,0.2981916 0.307227,0.2981916 0.171687,0 0.298192,-0.1355417 0.298192,-0.2981916 z m -0.822286,0.9216832 v 0.2168666 c 0.352408,0 0.388553,0.036144 0.388553,0.2801194 v 1.22891091 c 0,0.15361387 0,0.19879442 -0.316264,0.19879442 h -0.09036 V 7.4456195e-4 c 0.198794,-0.018072222 0.406625,-0.018072222 0.614455,-0.018072222 0.189759,0 0.406625,0 0.596384,0.018072222 V -0.21612207 c -0.334336,0 -0.379517,0 -0.379517,-0.19879442 V -2.2040662 Z m 4.563236,0.6415637 c 0,-0.5512026 -0.379517,-0.7048165 -0.840359,-0.7048165 -0.53313,0 -0.81325,0.2981916 -0.921683,0.4879499 v -0.4879499 l -0.822286,0.063253 v 0.2168666 c 0.370481,0 0.415661,0.036144 0.415661,0.2801194 v 1.22891091 c 0,0.15361387 0,0.19879442 -0.3253,0.19879442 h -0.09036 V 7.4456195e-4 C 26.91157,-0.01732766 27.1194,-0.01732766 27.336267,-0.01732766 c 0.20783,0 0.424697,0 0.632528,0.018072222 V -0.21612207 h -0.09036 c -0.3253,0 -0.3253,-0.0451805 -0.3253,-0.19879442 V -1.282383 c 0,-0.5602388 0.515058,-0.7499971 0.822286,-0.7499971 0.37048,0 0.460841,0.2078305 0.460841,0.5240943 v 1.09336931 c 0,0.15361387 0,0.19879442 -0.3253,0.19879442 h -0.09036 V 7.4456195e-4 c 0.216867,-0.018072222 0.424697,-0.018072222 0.632528,-0.018072222 0.20783,0 0.424697,0 0.632527,0.018072222 V -0.21612207 h -0.09036 c -0.316263,0 -0.316263,-0.0451805 -0.316263,-0.19879442 z m 3.031614,-0.4337332 c 0.243975,-0.1445778 0.469878,-0.1536139 0.551203,-0.1536139 -0.01807,0.018072 -0.04518,0.045181 -0.04518,0.1174694 0,0.099397 0.06325,0.1807222 0.180723,0.1807222 0.126505,0 0.189758,-0.081325 0.189758,-0.1807222 0,-0.1355416 -0.108433,-0.2891555 -0.343372,-0.2891555 -0.11747,0 -0.388553,0.027108 -0.6506,0.2349389 -0.108433,-0.072289 -0.334336,-0.1807222 -0.641564,-0.1807222 -0.587347,0 -1.003008,0.3524083 -1.003008,0.7319249 0,0.2620472 0.189758,0.4427694 0.262047,0.50602212 -0.117469,0.14457776 -0.144578,0.28915551 -0.144578,0.39758883 0,0.26204718 0.16265,0.43373327 0.207831,0.4608416 -0.243975,0.07228887 -0.533131,0.22590274 -0.533131,0.48794992 0,0.39758883 0.6506,0.65059993 1.373489,0.65059993 0.668672,0 1.382525,-0.22590277 1.382525,-0.65963604 0,-0.21686663 -0.126506,-0.4608416 -0.370481,-0.57831102 -0.334336,-0.16264998 -0.659636,-0.16264998 -1.18373,-0.16264998 -0.126506,0 -0.352408,0 -0.37048,0 -0.243975,-0.0451806 -0.298192,-0.23493885 -0.298192,-0.33433606 0,-0.0993972 0.05422,-0.18072219 0.06325,-0.18072219 0.009,0 0.02711,0.009036 0.03614,0.0180722 0.198795,0.0993972 0.397589,0.12650553 0.569275,0.12650553 0.587347,0 0.993972,-0.34337214 0.993972,-0.73192484 0,-0.2349389 -0.16265,-0.406625 -0.225903,-0.4608416 z m -0.759033,1.03011649 c -0.442769,0 -0.560239,-0.28915549 -0.560239,-0.56927489 0,-0.2710833 0.11747,-0.5602388 0.551203,-0.5602388 0.442769,0 0.560239,0.2891555 0.560239,0.5602388 0,0.2801194 -0.11747,0.56927489 -0.551203,0.56927489 z m 0,0.91264708 c 0.496986,0 1.201803,0 1.201803,0.3704805 0,0.24397496 -0.44277,0.47891382 -1.039153,0.47891382 -0.569275,0 -1.030116,-0.21686664 -1.030116,-0.47891382 0,-0.15361386 0.171686,-0.3704805 0.542166,-0.3704805 z m 0,0"
         style="fill:#000000;fill-opacity:1;fill-rule:nonzero;stroke:none"
         aria-label="over-fitting"
         transform="matrix(1.7291733,0,0,1.7291733,1904.9379,110.50262)"
         opacity="1"
         id="path202" />
    </g>
  </g>
</svg>
